<svg width="38" height="49" viewBox="0 0 38 49" fill="none" xmlns="http://www.w3.org/2000/svg">
<g clip-path="url(#clip0)">
<path d="M11.8753 33.6412V31.2382H2.37531V33.6412C2.37531 36.2957 4.50168 38.4471 7.12531 38.4471C9.74894 38.4471 11.8753 36.2957 11.8753 33.6412ZM30.8753 48.0588C33.4989 48.0588 35.6253 45.9074 35.6253 43.2529V40.85H26.1253V43.2529C26.1253 45.9074 28.2517 48.0588 30.8753 48.0588ZM21.3753 22.7183C21.3753 25.3398 22.3491 28.4373 23.7503 30.5827C24.966 32.4442 26.1253 33.9258 26.1253 38.4471H35.6253L36.8106 34.127C37.3509 32.1589 37.7843 30.1464 37.9276 28.0964C38.099 25.6416 37.9773 23.1704 37.4674 20.7689C35.7218 12.5479 31.8565 9.61176 28.5003 9.61176C23.7503 9.61176 21.3753 15.933 21.3753 22.7183ZM0.533944 11.1572C0.0240614 13.5586 -0.0983996 16.0299 0.0737879 18.4846C0.21703 20.5346 0.650468 22.5471 1.19004 24.5153L2.37531 28.8353H11.8753C11.8753 24.3148 13.0346 22.8324 14.2503 20.9709C15.6516 18.8255 16.6253 15.728 16.6253 13.1065C16.6253 6.32124 14.2503 0 9.50031 0C6.14414 0 2.27883 2.93609 0.533944 11.1572Z" fill="white"/>
</g>
<defs>
<clipPath id="clip0">
<rect width="38" height="48.0588" fill="white"/>
</clipPath>
</defs>
</svg>
