<svg width="140" height="140" viewBox="0 0 140 140" fill="none" xmlns="http://www.w3.org/2000/svg">
<circle cx="70" cy="70" r="70" fill="white"/>
<mask id="mask0" mask-type="alpha" maskUnits="userSpaceOnUse" x="0" y="0" width="140" height="140">
<circle cx="70" cy="70" r="70" fill="white"/>
</mask>
<g mask="url(#mask0)">
<path fill-rule="evenodd" clip-rule="evenodd" d="M41.9371 59.4265C42.0483 59.5376 42.1891 59.5969 42.3374 59.5969C42.4782 59.5969 42.6116 59.5376 42.7228 59.4339C42.9451 59.2189 42.9526 58.8705 42.7376 58.6481C40.4028 56.239 39.291 53.6891 39.3355 50.8352C39.4615 43.6079 47.333 36.0173 53.0847 30.4726L53.6925 29.887C62.1495 21.7257 72.1779 20.6805 79.1007 21.2439C94.8214 22.5189 96.5114 31.6957 96.5781 32.0886C96.63 32.3925 96.9116 32.6001 97.2155 32.5482C97.5194 32.4963 97.7269 32.2146 97.6751 31.9107C97.6083 31.4808 95.8295 21.4811 79.1896 20.132C68.9241 19.3018 59.8444 22.4003 52.9216 29.0865L52.3139 29.6721L52.3023 29.6832C46.0856 35.6782 38.3496 43.1382 38.2237 50.8204C38.1718 53.9337 39.4171 56.832 41.9371 59.4265ZM84.0744 71.8576C84.1708 72.0652 84.3709 72.1838 84.5784 72.1838C84.6526 72.1838 84.7341 72.1615 84.823 72.1319C89.3962 70.0193 91.5383 65.9349 91.6346 62.8216C91.6939 60.9314 90.9972 59.4562 89.7298 58.7743C87.4024 57.5289 85.0158 58.5222 83.8669 60.153C83.689 60.3976 83.7483 60.746 84.0003 60.9239C84.2449 61.1019 84.5933 61.0425 84.7712 60.7905C85.3715 59.9381 87.0837 58.6186 89.1961 59.7527C90.0781 60.2272 90.5599 61.3316 90.5154 62.7845C90.4339 65.4679 88.4697 69.2113 84.3487 71.1163C84.067 71.2498 83.9484 71.5759 84.0744 71.8576ZM91.0924 78.8984C90.6272 74.0989 91.1449 70.8144 91.1668 70.6753L91.1674 70.6714C91.2193 70.3675 91.0192 70.0784 90.7153 70.0265C90.4114 69.9746 90.1223 70.1747 90.0705 70.4787C90.0038 70.8789 88.4546 80.4116 93.0945 91.3008C93.1835 91.5158 93.391 91.6418 93.606 91.6418C93.6801 91.6418 93.7468 91.6344 93.8209 91.5973C94.11 91.4787 94.236 91.1526 94.1174 90.8709C92.9027 88.0244 92.1271 85.2541 91.6424 82.7233C91.6425 82.7138 91.6422 82.7043 91.6418 82.6948C91.3788 77.0722 96.8851 71.9688 98.1829 70.8472C99.3861 70.3384 100.42 69.6019 101.278 68.6404C104.373 65.1693 104.017 60.0494 103.998 59.7791L103.998 59.7749C103.968 59.4636 103.701 59.2338 103.397 59.2634C103.093 59.2931 102.864 59.5599 102.886 59.8639L102.887 59.8785C102.903 60.1768 103.157 64.858 100.44 67.9066C99.7989 68.6271 99.0382 69.2035 98.1626 69.6347C98.024 69.6202 97.8806 69.6576 97.7641 69.7523L97.7613 69.7546L97.7166 69.7909C97.6886 69.8137 97.6509 69.8448 97.6042 69.8838C96.5627 70.3025 95.376 70.536 94.0509 70.5826C93.747 70.5974 93.5098 70.8568 93.5173 71.1607C93.5247 71.4573 93.7767 71.6945 94.0732 71.6945C94.0806 71.6945 94.088 71.6945 94.088 71.687C94.7052 71.6661 95.2963 71.6078 95.8606 71.5123C94.2684 73.1466 92.1046 75.7878 91.0924 78.8984ZM127.345 137.074C127.064 137.074 126.827 136.867 126.797 136.578C126.782 136.444 125.203 122.827 117.621 113.68C112.27 106.927 105.88 100.908 99.6173 96.7345C99.521 96.6678 99.4394 96.5714 99.4024 96.4603C99.0614 95.5114 97.4753 93.3173 96.8971 92.576C75.4797 98.6276 61.8077 108.567 61.459 108.82L61.4532 108.825C61.2086 109.01 60.8602 108.958 60.6749 108.706C60.4896 108.461 60.5415 108.113 60.7935 107.928C60.8323 107.899 61.9218 107.1 63.9395 105.828C63.9261 105.786 63.9174 105.742 63.914 105.696C63.5137 98.684 62.187 90.7451 62.1722 90.6635C62.1203 90.3596 62.3278 90.0705 62.6317 90.0261C62.9356 89.9816 63.2172 90.1817 63.2691 90.4856C63.2836 90.5654 64.5604 98.2123 64.9977 105.171C70.7199 101.67 81.9837 95.5832 96.9416 91.4048C97.075 91.3678 97.2158 91.3826 97.3419 91.4419C97.7124 91.6272 99.8248 94.5849 100.388 95.8969C106.696 100.13 113.122 106.186 118.496 112.968C126.286 122.375 127.894 136.311 127.909 136.444C127.946 136.748 127.723 137.022 127.42 137.059C127.39 137.074 127.368 137.074 127.345 137.074ZM47.6815 136.103C47.7631 136.147 47.852 136.17 47.941 136.17C48.1411 136.17 48.3338 136.066 48.4376 135.873C51.3544 130.438 57.2419 118.916 59.7409 114.014L59.5554 119.38C59.548 119.588 59.6592 119.78 59.837 119.884C59.926 119.936 60.0149 119.958 60.1113 119.958C60.215 119.958 60.3188 119.929 60.4152 119.877C60.5782 119.766 77.1736 109.099 97.9271 97.8094C98.1939 97.6611 98.2977 97.3202 98.1494 97.0533C98.0012 96.7864 97.6676 96.6827 97.3934 96.8309C79.3379 106.653 64.4251 116 60.7043 118.365L60.9358 111.657C61.0245 111.399 60.91 111.11 60.6598 110.982C60.6387 110.971 60.6173 110.961 60.5956 110.953C60.5372 110.93 60.4739 110.917 60.4078 110.915H60.3855C60.1146 110.915 59.8809 111.107 59.8369 111.372L59.6634 111.712L59.663 111.713C58.2156 114.553 50.8302 129.045 47.4518 135.347C47.3109 135.621 47.4073 135.955 47.6815 136.103ZM82.1843 137.778C82.1718 137.778 82.1593 137.778 82.1454 137.777C82.1374 137.776 82.1288 137.775 82.1196 137.773L82.1102 137.771C81.8064 137.734 81.5914 137.452 81.6285 137.148C82.844 127.593 86.6093 119.958 86.6463 119.884C86.7797 119.61 87.1133 119.499 87.3875 119.632C87.6618 119.766 87.7729 120.099 87.6395 120.381C87.6025 120.455 83.9262 127.934 82.7254 137.289C82.7032 137.578 82.4586 137.778 82.1843 137.778ZM57.9841 54.8974C58.0064 55.1939 58.251 55.4237 58.54 55.4237H58.5623C63.71 55.1147 67.6762 53.3399 70.7157 50.963C70.5045 52.5431 70.222 55.5837 70.5327 59.0113C71.133 65.5938 73.6679 70.3749 77.8779 72.8582C77.9668 72.9101 78.0632 72.9323 78.1595 72.9323C78.3523 72.9323 78.5376 72.8359 78.6487 72.6654C78.8044 72.3986 78.7155 72.0576 78.4486 71.9019C69.0201 66.3478 71.9496 50.2645 71.9926 50.0286L71.9928 50.0272C72.0015 49.9762 72.0033 49.9257 71.9989 49.8765C78.4577 43.9689 80.0893 35.4829 80.1162 35.3431L80.1163 35.3428C80.1756 35.0389 79.9754 34.7498 79.6716 34.6979C79.3825 34.6386 79.086 34.8388 79.0267 35.1427C78.9971 35.3206 75.5283 53.2888 58.503 54.3118C58.1991 54.3266 57.9693 54.5935 57.9841 54.8974ZM46.1621 58.789C45.9323 58.789 45.7174 58.6482 45.6358 58.4184C45.5321 58.1293 45.6803 57.8105 45.9694 57.7067C65.6704 50.6796 66.6339 38.3449 66.6413 38.2189C66.6636 37.915 66.9156 37.6852 67.2269 37.7C67.5308 37.7148 67.768 37.9817 67.7531 38.2856C67.7235 38.8193 66.7896 51.4727 46.3474 58.7593C46.2881 58.7742 46.2214 58.789 46.1621 58.789ZM45.4431 55.3495C45.5024 55.6089 45.7322 55.7794 45.9842 55.7794C46.023 55.7794 46.0562 55.7738 46.0936 55.7674L46.1102 55.7646C46.4067 55.6979 46.592 55.394 46.5253 55.0975C44.6723 47.1956 50.7353 40.9986 50.7946 40.9393C51.0095 40.7243 51.0095 40.3685 50.7946 40.1536C50.5796 39.9386 50.2238 39.9386 50.0089 40.1536C49.742 40.4204 43.4493 46.8324 45.4431 55.3495ZM78.33 68.9516C78.3818 69.211 78.6116 69.3963 78.871 69.3963C78.9081 69.3963 78.9452 69.3889 78.9748 69.3815C79.2787 69.3222 79.4714 69.0331 79.4121 68.7292C78.2562 62.9273 82.8697 56.1433 83.0325 55.9039L83.0366 55.8979C83.2145 55.6459 83.1552 55.3049 82.9032 55.127C82.6586 54.9491 82.3102 55.0084 82.1324 55.2604C81.9248 55.5569 77.0625 62.6063 78.33 68.9516ZM77.0996 60.7309C76.8105 60.7309 76.5659 60.5085 76.5437 60.2195C76.0026 53.0514 79.4788 47.2251 79.6271 46.9805C79.7901 46.721 80.1311 46.6321 80.3905 46.7951C80.6499 46.9508 80.7388 47.2992 80.5758 47.5586C80.5387 47.6179 77.1366 53.3331 77.648 60.1379C77.6703 60.4418 77.4405 60.7087 77.1366 60.7309H77.0996ZM104.353 68.9C104.45 69.1001 104.65 69.2187 104.857 69.2187C104.939 69.2187 105.02 69.2039 105.08 69.1668C115.531 64.2745 110.364 51.9102 107.274 44.5272C106.962 43.7933 106.673 43.1039 106.421 42.4664C103.923 36.2176 101.967 32.9708 98.1865 32.5705C97.89 32.5483 97.6084 32.7633 97.5788 33.0672C97.5491 33.3711 97.7715 33.6454 98.0753 33.675C100.951 33.979 102.73 36.2102 105.398 42.8741C105.658 43.519 105.947 44.2158 106.258 44.9571C109.386 52.429 114.107 63.7185 104.62 68.1587C104.346 68.2921 104.227 68.6183 104.353 68.9ZM46.1918 85.9192C46.3697 88.699 46.5253 91.1155 52.1139 91.1155H52.1143C52.3439 91.1155 52.5736 91.1155 52.7958 91.1007C58.5565 90.9122 64.9476 88.818 65.4869 88.6413C65.4993 88.6373 65.5086 88.6342 65.5147 88.6322C65.8038 88.5359 65.9594 88.2171 65.8631 87.928C65.7667 87.6389 65.4554 87.4833 65.1589 87.5797C65.0922 87.6019 58.4808 89.8034 52.7588 89.9888C47.5694 90.1664 47.4669 88.6286 47.282 85.8553L47.2813 85.8451L47.2665 85.6301C47.1701 84.1847 47.1479 82.754 47.1257 81.2418L47.125 81.1947C47.103 79.7342 47.0802 78.2223 46.9848 76.6089C46.97 76.4088 46.8514 76.2309 46.6661 76.1419C46.3423 75.9868 45.9203 75.8193 45.4391 75.6284C45.3916 75.6095 45.3435 75.5905 45.2949 75.5711L45.2932 75.5705C44.2621 75.1624 41.9223 74.2365 41.6186 73.6068C43.5276 69.0031 45.8817 62.7547 46.2981 61.6496C46.3376 61.5447 46.3597 61.4861 46.3622 61.4797C46.466 61.1906 46.3252 60.8719 46.0361 60.7607C45.7545 60.6569 45.4358 60.7977 45.3246 61.0868C45.322 61.0932 45.2998 61.1522 45.26 61.2578C44.8382 62.378 42.4391 68.7479 40.5291 73.3474C40.492 73.4363 40.4846 73.5327 40.492 73.6216C40.6254 74.8299 42.4858 75.6527 44.9021 76.6089C44.9706 76.6363 45.0382 76.6632 45.1045 76.6897C45.397 76.8063 45.6671 76.9139 45.9027 77.0166C45.983 78.4774 46.0058 79.8663 46.0277 81.2045L46.0287 81.2641C46.0308 81.3741 46.0329 81.4837 46.035 81.5928C46.0619 82.9985 46.0875 84.3354 46.1769 85.7042L46.1918 85.9192Z" fill="#333333"/>
</g>
</svg>
