<svg width="140" height="140" viewBox="0 0 140 140" fill="none" xmlns="http://www.w3.org/2000/svg">
<circle cx="70" cy="70" r="70" fill="white"/>
<mask id="mask0" mask-type="alpha" maskUnits="userSpaceOnUse" x="0" y="0" width="140" height="140">
<circle cx="70" cy="70" r="70" fill="white"/>
</mask>
<g mask="url(#mask0)">
<path fill-rule="evenodd" clip-rule="evenodd" d="M104.813 50.1058C104.813 50.4172 105.065 50.6618 105.369 50.6618C105.68 50.6618 105.925 50.4098 105.925 50.1058C105.925 49.965 105.903 46.5552 104.22 41.8037C102.671 37.4302 99.343 31.0627 92.3239 25.5477C75.2245 12.116 59.2147 21.5375 59.0517 21.6338C58.7923 21.7969 58.7107 22.1379 58.8664 22.3973C59.022 22.6568 59.363 22.7383 59.6298 22.5827C59.6669 22.5604 63.5433 20.2551 69.3988 19.5879C74.7872 18.9727 83.0219 19.6621 91.6346 26.4224C104.643 36.6296 104.813 49.9724 104.813 50.1058ZM48.8308 41.0327C48.7048 41.0327 48.5788 40.9882 48.4751 40.9067C48.4158 40.8622 42.7679 35.9995 46.7777 27.5194C49.0828 22.6419 53.6264 21.0704 57.0285 20.6182C57.3324 20.5738 57.614 20.7887 57.6511 21.0926C57.6881 21.3966 57.4806 21.6782 57.1767 21.7153C54.0489 22.1378 49.8759 23.5611 47.7783 27.9938C44.1465 35.6733 48.9791 39.8837 49.1792 40.0542C49.4164 40.2544 49.446 40.6028 49.2459 40.84C49.1496 40.966 48.9865 41.0327 48.8308 41.0327ZM127.405 135.136C127.457 135.403 127.687 135.581 127.946 135.581C127.983 135.581 128.028 135.574 128.065 135.566C128.361 135.5 128.554 135.211 128.495 134.907C128.472 134.795 126.108 123.647 117.947 113.958C111.062 105.782 106.941 102.565 102.16 98.8441C101.263 98.1473 100.344 97.4283 99.3878 96.6648C99.1507 96.472 98.8023 96.5165 98.6096 96.7537L98.6027 96.7624L98.5954 96.7719C98.5312 96.7719 98.4657 96.7829 98.4017 96.8059C98.0304 96.9443 97.66 97.0883 97.2908 97.2378C97.095 96.57 96.1479 92.9355 95.4222 83.9594C95.0071 70.2905 100.937 64.6272 100.996 64.5753C101.218 64.3677 101.233 64.0119 101.026 63.7896C100.818 63.5672 100.47 63.5524 100.24 63.7599C100.001 63.9788 94.7875 68.9131 94.3219 80.8695C94.2872 80.8608 94.2512 80.8553 94.2141 80.8535L87.5879 80.5496C88.3068 67.1253 82.985 63.7081 82.7553 63.5672C82.4884 63.4116 82.1549 63.4931 81.9918 63.7526C81.8288 64.012 81.9103 64.353 82.1697 64.5161C82.2216 64.5457 87.2914 67.9036 86.4464 81.0463C86.439 81.1945 86.4909 81.3428 86.5872 81.454C86.6836 81.5652 86.8244 81.6319 86.9727 81.6393L94.1622 81.9729H94.1919C94.2264 81.9729 94.2603 81.9697 94.2931 81.9637C94.2838 82.6282 94.2891 83.313 94.3104 84.0187C95.1016 93.8269 96.1394 97.2948 96.2575 97.6719C82.0892 103.838 69.6546 118.121 61.8979 137.257C61.7793 137.546 61.9201 137.865 62.2018 137.983C62.2685 138.013 62.3426 138.028 62.4093 138.028C62.6243 138.028 62.8392 137.894 62.9281 137.672C70.9553 117.858 84.03 103.344 98.7872 97.8437C98.8533 97.8199 98.9116 97.785 98.961 97.7417C99.8296 98.434 100.664 99.0862 101.485 99.7262L101.494 99.7329C106.219 103.414 110.302 106.595 117.102 114.678C125.07 124.143 127.383 135.025 127.405 135.136ZM59.756 110.363C59.8079 110.63 60.0451 110.816 60.3045 110.816C60.3416 110.816 60.3786 110.816 60.4083 110.801L60.4306 110.796C60.9776 110.685 71.1416 108.622 82.4885 104.129C82.7701 104.018 82.9109 103.692 82.7998 103.41C82.6886 103.129 82.3699 102.988 82.0808 103.099C70.8264 107.549 60.7553 109.597 60.2153 109.707L60.2152 109.707L60.1933 109.711C59.8969 109.77 59.6967 110.06 59.756 110.363ZM48.1711 137.486C48.0969 137.486 48.0154 137.471 47.9413 137.434C47.6596 137.308 47.5336 136.982 47.6596 136.701C52.9636 124.827 57.6148 112.315 58.0864 111.046L58.1253 110.942C58.2291 110.652 58.5478 110.504 58.8369 110.608C59.1259 110.712 59.2742 111.031 59.1704 111.32L59.1312 111.425C58.6573 112.701 53.9995 125.239 48.6825 137.145C48.5861 137.368 48.386 137.486 48.1711 137.486ZM79.7534 139.087C79.7904 139.094 79.8349 139.102 79.8719 139.102C80.124 139.102 80.3537 138.924 80.4204 138.665C81.8949 131.963 86.4673 123.681 86.6487 123.352L86.6539 123.343C86.8022 123.076 86.7058 122.735 86.439 122.586C86.1721 122.438 85.8312 122.535 85.6829 122.801C85.4828 123.15 80.8577 131.452 79.3309 138.427C79.2642 138.724 79.4569 139.02 79.7534 139.087ZM83.0222 29.4168C82.9036 29.4168 82.7776 29.3798 82.6813 29.2982C74.5355 22.8863 66.4565 24.7691 64.0328 26.0367C63.7585 26.1775 63.425 26.0737 63.2842 25.7995C63.1433 25.5252 63.2471 25.1916 63.5214 25.0508C66.123 23.6943 74.7653 21.6484 83.3706 28.4235C83.6152 28.6163 83.6522 28.9647 83.4669 29.2019C83.3483 29.3427 83.1853 29.4168 83.0222 29.4168ZM75.0616 47.4446C75.0912 47.452 75.1283 47.452 75.1653 47.452C75.4248 47.452 75.6619 47.2667 75.7138 47.0072C75.7731 46.7033 75.5804 46.4142 75.2765 46.3549C54.901 42.404 52.8331 34.2723 52.8109 34.1685C52.7442 33.8646 52.4477 33.6719 52.1512 33.7386C51.8547 33.8053 51.662 34.0944 51.7213 34.3983C51.7591 34.5833 52.3005 36.8965 55.6296 39.6658C55.5023 39.7375 55.4023 39.8582 55.3606 40.0099L53.0407 48.8606C52.9666 49.1497 53.137 49.4462 53.4261 49.5351L53.4278 49.5357C53.497 49.5578 55.4706 50.1889 57.1766 52.7151C57.9359 53.8352 58.7131 55.4452 59.2175 57.706L45.8414 60.3069C46.2172 57.9095 46.0912 55.8544 45.4954 53.4043C44.6727 49.9944 48.8308 42.0333 48.8753 41.9517C49.0235 41.6849 48.9197 41.3439 48.6455 41.203C48.3787 41.0548 48.0377 41.1586 47.8969 41.4328L47.8951 41.4362C47.693 41.8236 43.4971 49.8653 44.4207 53.6637C45.0164 56.1226 45.1175 58.1027 44.6835 60.532L43.4277 60.7762L42.3377 56.3398C42.2636 56.0433 41.9597 55.858 41.6632 55.9321C41.3668 56.0062 41.1815 56.3101 41.2556 56.6066L42.3323 60.9892L42.2267 61.0097C41.9302 61.069 41.7301 61.3581 41.7894 61.6621C41.8413 61.9289 42.0784 62.1142 42.3379 62.1142C42.3749 62.1142 42.412 62.1142 42.4416 62.0994L42.5976 62.0691L43.419 65.4126C42.623 67.377 41.2744 70.6925 39.9288 73.9374C39.8917 74.0264 39.8843 74.1227 39.8917 74.2117C40.0252 75.4199 41.8856 76.2428 44.3019 77.199L44.327 77.2088C44.695 77.3532 45.0272 77.4835 45.3099 77.6067C45.4285 79.5784 45.6064 82.0691 45.7694 84.2781C45.8806 85.768 45.9844 87.1764 46.0585 88.2883L46.0733 88.4959L46.0743 88.5108C46.2666 91.3954 46.4325 93.8845 52.6996 93.6773C57.4432 93.5216 62.1424 92.7507 63.7805 92.4616C63.9361 94.5001 64.3141 101.305 63.2023 107.287C63.143 107.583 63.3432 107.873 63.6471 107.932C63.6841 107.939 63.7137 107.939 63.7507 107.939H63.7508C64.0176 107.939 64.2474 107.747 64.2919 107.48C65.6229 100.287 64.8527 91.9564 64.8333 91.7461L64.833 91.7426C64.8181 91.5869 64.7366 91.4387 64.6106 91.3497C64.4846 91.2608 64.329 91.2237 64.1733 91.2534C64.114 91.2682 58.4216 92.3801 52.6625 92.5654C47.4727 92.7357 47.3706 91.205 47.1857 88.4312L47.1851 88.4217L47.1703 88.2068C47.0962 87.0949 46.9924 85.6865 46.8812 84.1891C46.7107 81.8541 46.518 79.2078 46.3994 77.199C46.3846 76.9988 46.266 76.8209 46.0807 76.732C45.757 76.5768 45.335 76.4094 44.8539 76.2185C44.8063 76.1997 44.7582 76.1806 44.7095 76.1612L44.7079 76.1606C43.6768 75.7526 41.3369 74.8266 41.0332 74.1969C42.0843 71.6573 43.1316 69.091 43.9103 67.1744C44.0146 67.3007 44.1701 67.3772 44.339 67.3772C44.3834 67.3772 44.4279 67.3772 44.4724 67.3624C44.7689 67.2883 44.9542 66.9843 44.88 66.6878L44.5887 65.502C44.7952 64.9919 44.9551 64.5964 45.0556 64.3476C45.1313 64.1603 45.1734 64.0561 45.1765 64.0489C45.2469 63.8658 45.2162 63.6677 45.1125 63.5189C45.3164 62.8012 45.4865 62.126 45.6236 61.4807L59.4299 58.7962C59.8368 61.221 59.9364 64.2997 59.452 68.1853C59.415 68.4744 59.6077 68.7413 59.8893 68.8006L63.6546 69.5715C63.6917 69.5863 63.7287 69.5863 63.7658 69.5863C63.8844 69.5863 64.003 69.5493 64.0919 69.4751C64.2179 69.3788 64.2994 69.2379 64.3143 69.0823C64.3217 69.0007 65.1073 61.2768 68.1388 58.245C68.3538 58.03 68.3538 57.6742 68.1388 57.4592C67.9239 57.2443 67.5681 57.2443 67.3532 57.4592C64.5366 60.276 63.536 66.3915 63.284 68.3632L60.6157 67.8147C61.0436 64.0692 60.9484 61.035 60.54 58.5803L70.0808 56.7252C70.3773 56.6659 70.5774 56.3768 70.5181 56.0729C70.4588 55.7764 70.1698 55.5763 69.8659 55.6356L60.3304 57.4896C58.9764 51.3128 55.5589 49.2427 54.2488 48.6604L56.4392 40.3052C59.782 42.8158 65.4573 45.5852 75.0616 47.4446ZM44.0377 63.259L43.693 61.8561L44.4399 61.7109C44.3255 62.2033 44.1915 62.7173 44.0377 63.259ZM88.8924 56.3178C75.4693 56.3178 69.9697 48.9867 69.7399 48.6679C69.562 48.4233 69.6139 48.0749 69.8585 47.8896C70.1031 47.7117 70.4514 47.7636 70.6367 48.0082C70.6886 48.0823 76.2846 55.5098 89.7596 55.1911C90.0635 55.1911 90.3229 55.4283 90.3303 55.7322C90.3377 56.0361 90.0931 56.2955 89.7892 56.303L89.7887 56.303H89.7887H89.7886H89.7886H89.7885H89.7885H89.7884H89.7884H89.7883H89.7883H89.7883H89.7882H89.7882H89.7881C89.4846 56.3104 89.1811 56.3178 88.8924 56.3178ZM100.032 62.1367C100.136 62.2997 100.314 62.3887 100.499 62.3887C100.603 62.3887 100.714 62.359 100.796 62.2997C101.055 62.1292 101.129 61.7883 100.959 61.5288C95.6667 53.4268 86.8539 52.6781 86.4833 52.6485C86.1943 52.6262 85.9126 52.856 85.8904 53.1599C85.8681 53.4639 86.0979 53.7307 86.4018 53.7529C86.4907 53.7604 95.0367 54.4868 100.032 62.1367ZM102.605 62.4996C102.301 62.4996 102.056 62.255 102.049 61.9511C101.73 42.7375 86.8616 39.4908 86.2316 39.3573C85.9277 39.298 85.735 39.0015 85.7943 38.705C85.8535 38.4011 86.1426 38.2084 86.4465 38.2677C86.6096 38.2973 102.82 41.7961 103.153 61.9289C103.16 62.2328 102.916 62.4922 102.605 62.4922C102.612 62.4996 102.605 62.4996 102.605 62.4996ZM103.642 58.6229C103.664 58.6303 103.687 58.6303 103.709 58.6303C103.99 58.6303 104.228 58.4227 104.265 58.1336C105.155 50.8231 103.016 45.8477 102.896 45.5675L102.893 45.5618C102.767 45.2801 102.441 45.1541 102.16 45.2801C101.878 45.4061 101.752 45.7323 101.878 46.0139L101.878 46.0146C101.914 46.0967 104.01 50.9804 103.16 58.0076C103.123 58.3115 103.338 58.5858 103.642 58.6229ZM69.6585 73.663C69.3694 73.663 69.1248 73.4407 69.1026 73.1516C69.0803 72.8476 69.3101 72.5808 69.614 72.5585C74.1353 72.2176 76.7517 68.274 77.6115 65.0051C78.4713 61.7657 77.8635 58.7858 76.1143 57.6072C74.8172 56.7325 73.6239 56.4286 72.5788 56.7029C71.0445 57.1106 70.2737 58.645 70.2662 58.6598C70.1328 58.9341 69.7993 59.0453 69.525 58.9119C69.2508 58.7784 69.1322 58.4449 69.273 58.1706C69.3101 58.0891 70.2662 56.1766 72.2897 55.6281C73.6609 55.2574 75.1655 55.6132 76.7443 56.6806C78.9234 58.1484 79.6942 61.5285 78.701 65.2867C77.7449 68.9115 74.8098 73.2776 69.7103 73.6704C69.6881 73.663 69.6733 73.663 69.6585 73.663ZM85.5495 130.162C85.6607 130.281 85.8089 130.34 85.9572 130.34C86.0906 130.34 86.224 130.296 86.3352 130.192C86.4834 130.051 101.537 116.427 119.556 122.624C119.845 122.72 120.163 122.565 120.26 122.275C120.363 121.986 120.208 121.668 119.919 121.571C101.281 115.166 85.7657 129.208 85.5797 129.376L85.5792 129.377C85.3568 129.584 85.342 129.94 85.5495 130.162Z" fill="#333333"/>
</g>
</svg>
