<?xml version="1.0" encoding="utf-8"?>
<!-- Generator: Adobe Illustrator 25.2.3, SVG Export Plug-In . SVG Version: 6.00 Build 0)  -->
<svg version="1.1" id="レイヤー_1" xmlns="http://www.w3.org/2000/svg" xmlns:xlink="http://www.w3.org/1999/xlink" x="0px"
	 y="0px" viewBox="0 0 293.36 102" fill="#333" xml:space="preserve">
<path d="M19.02,28.17c-3.43,0-5.94,0.12-7.73,0.38v-4.27c-2.91,1.51-3.76,1.94-6.6,3.07c-1.72-3.83-2.25-4.7-4.69-7.84
	c6.14-2.07,10.76-4.39,15.52-7.66c4.75-3.32,8.12-6.65,10.96-10.73h9.57c3.5,4.39,6.67,7.34,11.62,10.54
	c5.48,3.58,9.64,5.52,15.91,7.47c-2.31,3.39-3.3,5.21-4.56,8.47c-3.04-1.26-3.89-1.63-7.13-3.39v4.33
	c-2.05-0.25-4.23-0.38-7.53-0.38h-8.65v6.4h10.04c3.57,0,5.94-0.12,7.79-0.38v8.22c-1.85-0.25-4.42-0.38-7.86-0.38h-9.97v7.47h15.85
	c3.83,0,6.8-0.12,9.05-0.38v8.34c-2.24-0.25-5.22-0.38-8.91-0.38H11.42c-3.7,0-6.47,0.12-8.72,0.38v-8.34
	c1.98,0.25,5.08,0.38,8.91,0.38h15.25v-7.47h-9.11c-3.37,0-6.01,0.13-7.79,0.38v-8.22c2.25,0.25,4.36,0.38,7.79,0.38h9.11v-6.4
	H19.02z M18.36,20.77h27.6c-6.93-4.52-10.1-7.21-14.46-12.48c-3.63,4.83-7.26,8.03-14.13,12.48H18.36z M86.77,25.72
	c-3.37,0-5.15,0.06-7.13,0.31v-7.59c1.85,0.25,3.63,0.31,7.13,0.31h4.69v-5.02h-2.77c-2.84,0-4.23,0.06-6.34,0.25V6.46
	c1.78,0.25,3.17,0.31,6.34,0.31h2.77V5.52c0-1.7-0.13-3.2-0.33-4.89h8.91c-0.2,1.38-0.27,2.76-0.27,4.89v1.25h0.92
	c2.25,0,3.3-0.06,4.62-0.31v4.71c1.91-3.2,3.17-5.84,3.89-8.09l5.88,3.51c-0.07-1.94-0.07-2.64-0.2-4.33
	c1.58,0.19,3.17,0.25,5.94,0.25h10.7c2.9,0,4.09-0.06,5.61-0.31l3.63,5.14c-0.66,1.26-0.66,1.32-1.06,2.51
	c-0.99,2.82-2.44,6.15-6.21,14.43c3.3,4.14,4.62,6.4,5.74,9.98c0.79,2.32,1.12,4.27,1.12,6.27c0,7.66-3.57,10.48-13.21,10.48
	c-0.33,0-0.59,0-1.06,0c-0.26-4.2-0.59-5.58-2.05-8.16c1.52,0.13,2.11,0.19,3.04,0.19c3.43,0,4.56-0.82,4.56-3.33
	c0-1.94-0.4-4.14-1.12-6.15c-1.12-3.07-2.51-5.14-5.55-8.41c2.71-5.4,4.56-10.23,6.01-15.43h-7.53v40.78c0,3.39,0.13,6.27,0.4,8.6
	h-9.11c0.2-1.94,0.33-4.52,0.33-8.78V8.97c-0.2,0.38-0.26,0.44-0.59,1.07c-1.92,3.39-3.57,6.02-5.61,8.72
	c2.31-0.06,3.1-0.12,4.49-0.31v7.46c-1.72-0.12-3.3-0.19-6.4-0.19h-4.03c-1.45,1.51-1.98,2.01-3.9,3.76h6.93
	c2.38,0,3.63-0.06,5.08-0.19c-0.2,1.69-0.27,3.07-0.27,6.71v15.18c0,2.95,0.07,4.89,0.27,6.65h-8.06V55.9h-9.71v3.01h-8.19
	c0.26-1.76,0.4-3.83,0.4-7.03V40.22c-1.58,1.07-2.18,1.38-4.03,2.51c-0.99-3.2-1.98-5.27-3.7-7.59c5.48-2.45,10.17-5.4,14.99-9.41
	H86.77z M93.37,39.46h9.64V35.7h-9.64V39.46z M93.37,49.5h9.64v-3.83h-9.64V49.5z M100.24,18.76c1.78-2.07,2.84-3.32,3.89-4.96
	c-0.86-0.06-1.39-0.06-2.31-0.06h-2.31v5.02H100.24z M191.83,52.89c0,4.39-2.11,5.9-8.19,5.9c-1.12,0-3.04-0.06-5.35-0.25
	c-0.26-2.38-0.59-3.64-1.45-5.65c-3.37,1.26-3.37,1.26-12.15,3.89c-2.05,0.63-2.64,0.82-3.57,1.13l-2.58-7.53
	c3.43-0.12,10.17-1.57,15.05-3.2c-1.45-1.76-3.89-3.95-5.88-5.4c-3.5,1-4.82,1.32-8.38,2.07c-0.59-3.45-1.19-4.89-3.04-7.78
	c6.01-0.63,13.4-2.26,17.7-3.89c4.23-1.57,7.66-3.51,10.1-5.77h7.2c2.51,2.32,4.56,3.58,7.86,4.96c5.74,2.38,11.95,3.76,20.21,4.52
	c-1.78,3.07-2.44,4.77-3.1,8.03c-4.75-0.88-6.41-1.19-9.18-1.95c-3.37,3.01-4.03,3.51-6.54,5.02c-1.72-2.01-2.77-2.95-5.08-4.52
	c2.11-1.13,2.71-1.57,4.36-3.08c-5.68-2.26-8.12-3.76-12.35-7.34c-3.83,3.26-6.47,4.83-11.82,7.09c1.32,1.07,1.72,1.38,3.89,3.45
	l-5.41,4.39c2.38-0.82,3.57-1.26,7.13-2.57l0.4,6.59l-1.98,0.75c0.73,0.06,1.19,0.06,1.65,0.06c1.72,0,2.31-0.38,2.31-1.51v-9.41
	c0-1.57-0.13-3.01-0.33-4.2h8.85c-0.26,1.32-0.33,2.57-0.33,4.33V52.89z M184.69,17.13c-1.72-0.19-2.25-0.19-4.82-0.19
	c2.11,1.82,3.57,2.76,6.74,4.08c-1.85,1.94-2.64,3.07-3.76,5.65c-2.84-1.69-4.75-3.2-6.47-5.27c0.07,0.94,0.13,2.07,0.13,2.7v2.07
	c0,1.82,0.07,3.01,0.33,4.27h-8.06c0.26-1.32,0.4-2.51,0.4-3.89v-2.2c0-1.26,0-1.51,0.13-2.7c-2.51,3.33-4.89,5.46-9.11,8.16
	c-1.12-2.95-1.85-4.27-3.83-6.52c4.09-1.88,6.8-3.7,9.51-6.34h-2.97c-1.92,0-3.57,0.06-5.08,0.25v-6.71
	c1.85,0.25,3.1,0.31,5.22,0.31h6.07V8.6c-2.05,0.12-2.05,0.12-7.92,0.38c-0.73-2.76-1.39-4.2-2.71-6.21
	c0.92,0.06,1.72,0.06,2.18,0.06c9.05,0,18.03-1.19,21.06-2.82l4.62,6.21c-3.17,0.69-6.87,1.32-9.77,1.69v2.89h3.3
	c2.71,0,3.5-0.06,4.82-0.19v1.13c3.7-3.51,6.34-7.78,6.93-11.54l8.12,1.32c-0.26,0.5-0.92,1.69-1.85,3.76h14.99
	c1.98,0,3.17-0.06,4.16-0.25c-0.13,1-0.2,1.38-0.2,3.45c-0.2,8.97-0.99,15.81-2.25,18.13c-1.26,2.32-3.5,3.32-7.33,3.32
	c-1.52,0-3.5-0.12-6.07-0.38c-0.2-2.57-0.59-4.14-1.58-6.34c-1.32,1.63-2.18,2.45-4.62,4.52c-1.72-2.07-3.3-3.45-6.01-5.02
	c3.37-2.26,4.75-3.39,6.4-5.58c1.32-1.76,2.25-3.26,3.1-5.27h-4.23c-1.78,2.57-2.91,3.89-5.55,6.34c-1.32-1.5-1.98-2.07-4.03-3.45
	V17.13z M195.99,44.98c4.23,2.2,6.27,3.07,9.77,4.14c3.7,1.13,6.01,1.57,10.96,2.13c-1.85,2.45-2.64,3.95-3.76,7.03
	c-8.58-1.63-12.94-3.26-20.93-7.84L195.99,44.98z M205.69,11.86c-1.25,3.95-3.17,7.66-5.68,10.86c2.18,0.38,3.89,0.56,5.15,0.56
	c1.52,0,2.18-0.25,2.51-1c0.73-1.57,1.25-5.52,1.52-10.42H205.69z M252.29,45.42v-1.69h-7.73v4.52h-8.58
	c0.26-2.07,0.4-4.46,0.4-7.84V10.79c0-3.01-0.07-4.58-0.27-6.59c1.72,0.13,3.3,0.19,6.74,0.19h11.95c2.51,0,3.83-0.06,5.61-0.19
	c-0.13,1.44-0.2,3.01-0.2,5.58V39.4c0,1.32,0.07,5.08,0.13,5.52c2.84-5.71,3.96-13.68,3.96-27.92c0-7.84-0.13-11.48-0.4-14.37
	c2.44,0.25,4.03,0.31,7.73,0.31h14.26c3.9,0,5.48-0.06,7.46-0.31c-0.2,1.69-0.26,3.58-0.26,7.34v40.65c0,3.39-0.86,5.33-2.77,6.53
	c-1.58,0.94-4.03,1.25-9.31,1.25c-0.59,0-1.52,0-3.57-0.06c-0.4-3.32-0.99-5.52-2.11-8.22c3.17,0.38,5.08,0.56,6.74,0.56
	c2.05,0,2.58-0.38,2.58-1.76v-9.47h-13.6c-1.85,8.72-5.08,14.43-11.36,19.95c-2.31-2.7-4.09-4.27-6.67-5.84
	c3.57-3.01,5.22-4.96,7.07-8.16H252.29z M244.5,20.14h7.79v-8.41h-7.79V20.14z M244.5,36.51h7.79v-9.35h-7.79V36.51z M272.63,24.72
	c-0.2,4.02-0.27,4.64-0.53,7.4h12.55v-7.4H272.63z M284.65,10.48h-11.89v7.09h11.89V10.48z M147.76,94.62
	c46.55,0,92.21,2.54,136.72,7.38c-37.44-20.22-84.96-32.34-136.72-32.34C96,69.66,48.48,81.79,11.04,102
	C55.56,97.16,101.21,94.62,147.76,94.62z"/>
</svg>
